<svg xmlns="http://www.w3.org/2000/svg" viewBox="0 0 110.85 11.08"><defs><style>.cls-1{fill:#1391d2;}.cls-2{fill:#fc9e15;}.cls-3{fill:#e3403d;}</style></defs><title>djangohotel</title><g id="Layer_2" data-name="Layer 2"><g id="Layer_1-2" data-name="Layer 1"><path class="cls-1" d="M0,.71H3c2.77,0,4.74,1.7,4.74,4.11S5.72,9,3,9H0ZM3.18,7.34a2.52,2.52,0,1,0,0-5H1.76v5Z"/><path class="cls-1" d="M7.58,10.83l.18-1.29a2.6,2.6,0,0,0,.65.1A.62.62,0,0,0,9,9V2.75h1.75V9.13a1.86,1.86,0,0,1-1.93,1.95A3.29,3.29,0,0,1,7.58,10.83ZM8.93.94a.95.95,0,0,1,1.89,0,.95.95,0,1,1-1.89,0Z"/><path class="cls-1" d="M17.77,5.24V9H16.08V8.32a2.45,2.45,0,0,1-1.83.77,2.1,2.1,0,0,1-2.33-2c0-1.22,1.14-2.06,2.57-2.06a4.58,4.58,0,0,1,1.59.31V5.24c0-.66-.41-1.23-1.43-1.23A3.55,3.55,0,0,0,13,4.45l-.58-1.16a5.58,5.58,0,0,1,2.59-.69A2.52,2.52,0,0,1,17.77,5.24ZM16.08,7V6.42a3.79,3.79,0,0,0-1.33-.23c-.64,0-1.14.37-1.14.87s.44.82,1,.82A1.35,1.35,0,0,0,16.08,7Z"/><path class="cls-1" d="M25.14,5V9H23.45V5.37a1.18,1.18,0,0,0-1.18-1.29A1.24,1.24,0,0,0,21,5.28V9H19.21V2.75H21v.78a2.2,2.2,0,0,1,1.87-.93A2.27,2.27,0,0,1,25.14,5Z"/><path class="cls-1" d="M32.86,2.75V8.29c0,1.59-1.38,2.72-3.33,2.72a4.61,4.61,0,0,1-2.73-.83L27.41,9a2.89,2.89,0,0,0,1.84.59c1.13,0,1.85-.52,1.85-1.32V7.53a2.63,2.63,0,0,1-2.05,1A2.77,2.77,0,0,1,26.3,5.54,2.76,2.76,0,0,1,29.05,2.6a2.55,2.55,0,0,1,2.05,1V2.75ZM31.1,5.54a1.5,1.5,0,0,0-3,0,1.5,1.5,0,0,0,3,0Z"/><path class="cls-1" d="M34.06,5.84a3.38,3.38,0,0,1,6.76,0,3.38,3.38,0,0,1-6.76,0Zm5.09,0a1.71,1.71,0,1,0-3.42,0,1.71,1.71,0,1,0,3.42,0Z"/><path class="cls-2" d="M49.34.71V9H47.58V5.54H43.82V9H42.06V.71h1.76V4h3.76V.71Z"/><path class="cls-2" d="M50.58,5.84a3.38,3.38,0,0,1,6.76,0,3.38,3.38,0,0,1-6.76,0Zm5.1,0a1.71,1.71,0,1,0-3.42,0,1.71,1.71,0,1,0,3.42,0Z"/><path class="cls-2" d="M62.22,8.55a2.24,2.24,0,0,1-1.43.54A1.8,1.8,0,0,1,58.93,7.2v-3h-.85V2.75h.85V1h1.68V2.75H62V4.16H60.61V6.92a.64.64,0,0,0,.59.7.9.9,0,0,0,.6-.21Z"/><path class="cls-2" d="M67.66,7l1.12,1.14a3.76,3.76,0,0,1-2.53,1A3.19,3.19,0,0,1,63,5.83,3.13,3.13,0,0,1,66.15,2.6c1.95,0,3.09,1.48,3.09,3.82H64.76a1.51,1.51,0,0,0,1.48,1.12A2.18,2.18,0,0,0,67.66,7ZM64.79,5.16h2.77a1.3,1.3,0,0,0-1.33-1A1.49,1.49,0,0,0,64.79,5.16Z"/><path class="cls-2" d="M70.43.56h1.75V9H70.43Z"/><path class="cls-3" d="M75.53,2.3V4.09h4.13v1.6H75.53V9H73.75V.71H80.1V2.3Z"/><path class="cls-3" d="M81.23.94a.95.95,0,0,1,1.89,0,.95.95,0,1,1-1.89,0Zm.07,1.81h1.75V9H81.3Z"/><path class="cls-3" d="M90.46,5V9H88.77V5.37A1.18,1.18,0,0,0,87.6,4.08a1.24,1.24,0,0,0-1.3,1.2V9H84.54V2.75h1.75v.78a2.2,2.2,0,0,1,1.87-.93A2.26,2.26,0,0,1,90.46,5Z"/><path class="cls-3" d="M98.32.56V9H96.57V8.06a2.53,2.53,0,0,1-2.08,1,3,3,0,0,1-2.86-3.25A3,3,0,0,1,94.49,2.6a2.56,2.56,0,0,1,2.08,1V.56ZM96.57,5.84A1.61,1.61,0,0,0,95,4.08a1.65,1.65,0,0,0-1.66,1.76A1.66,1.66,0,0,0,95,7.62,1.63,1.63,0,0,0,96.57,5.84Z"/><path class="cls-3" d="M104.22,7l1.11,1.14a3.76,3.76,0,0,1-2.53,1,3.19,3.19,0,0,1-3.29-3.26A3.13,3.13,0,0,1,102.7,2.6c2,0,3.09,1.48,3.09,3.82h-4.48a1.51,1.51,0,0,0,1.48,1.12A2.23,2.23,0,0,0,104.22,7Zm-2.88-1.83h2.77a1.3,1.3,0,0,0-1.33-1A1.49,1.49,0,0,0,101.34,5.16Z"/><path class="cls-3" d="M110.85,2.6V4.08A1.89,1.89,0,0,0,108.73,6V9H107V2.75h1.75V3.9A2.3,2.3,0,0,1,110.85,2.6Z"/></g></g></svg>